<?xml version="1.0" encoding="iso-8859-1"?>
<!-- Uploaded to: SVG Repo, www.svgrepo.com, Generator: SVG Repo Mixer Tools -->
<svg height="800px" width="800px" version="1.1" id="Layer_1" xmlns="http://www.w3.org/2000/svg" xmlns:xlink="http://www.w3.org/1999/xlink" 
	 viewBox="0 0 512.001 512.001" xml:space="preserve">
<path style="fill:#3E3D41;" d="M219.906,508.764c-0.763,0-1.534-0.053-2.312-0.163c-19.171-2.719-38.025-7.649-56.04-14.653
	c-8.403-3.267-12.565-12.726-9.299-21.129c3.267-8.402,12.726-12.567,21.128-9.297c15.684,6.098,32.1,10.39,48.795,12.758
	c8.925,1.267,15.134,9.528,13.869,18.453C234.89,502.879,227.904,508.764,219.906,508.764z M300.853,506.419
	c-7.609,0-14.417-5.347-15.983-13.093c-1.786-8.836,3.931-17.447,12.767-19.233c16.502-3.335,32.631-8.58,47.942-15.591
	c8.193-3.754,17.882-0.152,21.636,8.045c3.753,8.196,0.152,17.883-8.045,21.636c-17.584,8.053-36.112,14.077-55.068,17.908
	C303.013,506.314,301.925,506.419,300.853,506.419z M98.069,453.211c-3.787,0-7.59-1.31-10.678-3.983
	c-14.613-12.653-27.791-26.983-39.169-42.589c-5.31-7.284-3.711-17.495,3.574-22.805c7.284-5.311,17.494-3.711,22.806,3.574
	c9.921,13.609,21.414,26.105,34.16,37.141c6.815,5.901,7.555,16.21,1.655,23.025C107.187,451.302,102.642,453.211,98.069,453.211z
	 M419.201,443.873c-4.254,0-8.503-1.652-11.703-4.944c-6.284-6.463-6.141-16.796,0.322-23.081
	c12.094-11.761,22.846-24.901,31.957-39.056c4.879-7.581,14.979-9.77,22.56-4.89c7.58,4.879,9.77,14.98,4.89,22.559
	c-10.451,16.235-22.781,31.305-36.648,44.791C427.407,442.337,423.302,443.873,419.201,443.873z M25.551,340.693
	c-7.055,0-13.56-4.61-15.652-11.721c-5.441-18.496-8.762-37.686-9.871-57.037c-0.516-9,6.363-16.714,15.362-17.23
	c8.991-0.521,16.714,6.362,17.23,15.362c0.967,16.866,3.86,33.585,8.598,49.692c2.544,8.649-2.405,17.722-11.053,20.266
	C28.627,340.478,27.075,340.693,25.551,340.693z M485.069,327.32c-1.219,0-2.457-0.137-3.695-0.424
	c-8.782-2.033-14.254-10.801-12.219-19.584c3.781-16.331,5.698-33.197,5.698-50.128l-0.001-0.511
	c0-9.015,7.308-16.323,16.323-16.323c9.014,0,16.323,7.308,16.323,16.323l0.001,0.41c0,19.508-2.199,38.851-6.54,57.593
	C499.211,322.218,492.495,327.32,485.069,327.32z M25.42,206.822c-1.515,0-3.053-0.212-4.58-0.658
	c-8.653-2.526-13.622-11.588-11.096-20.241c5.414-18.549,12.984-36.505,22.5-53.37c4.43-7.85,14.387-10.624,22.238-6.193
	s10.624,14.387,6.193,22.238c-8.288,14.686-14.88,30.321-19.593,46.471C39.002,202.195,32.488,206.822,25.42,206.822z
	 M477.258,193.188c-6.693,0-12.971-4.148-15.363-10.811c-5.684-15.824-13.209-31.031-22.371-45.197
	c-4.896-7.569-2.727-17.674,4.842-22.57c7.569-4.892,17.673-2.728,22.57,4.842c10.515,16.26,19.156,33.718,25.682,51.891
	c3.047,8.483-1.361,17.832-9.846,20.879C480.95,192.878,479.088,193.188,477.258,193.188z M97.707,94.126
	c-4.561,0-9.095-1.9-12.323-5.612c-5.916-6.802-5.196-17.113,1.606-23.028c14.6-12.697,30.646-23.72,47.693-32.765
	c7.961-4.224,17.842-1.196,22.068,6.769c4.225,7.963,1.196,17.844-6.769,22.069c-14.855,7.883-28.842,17.491-41.572,28.562
	C105.321,92.807,101.505,94.126,97.707,94.126z M398.309,85.061c-3.475,0-6.975-1.104-9.942-3.386
	c-13.377-10.292-27.921-19.043-43.227-26.012c-8.205-3.736-11.827-13.414-8.093-21.619c3.736-8.205,13.415-11.827,21.618-8.093
	c17.57,7.999,34.259,18.042,49.607,29.849c7.145,5.498,8.481,15.746,2.984,22.89C408.043,82.868,403.202,85.061,398.309,85.061z
	 M219.329,38.327c-7.984,0-14.964-5.863-16.136-13.996c-1.286-8.922,4.904-17.199,13.826-18.485
	c12.015-1.731,24.305-2.609,36.53-2.609c7.09,0,14.251,0.296,21.285,0.88c8.984,0.746,15.662,8.634,14.916,17.618
	c-0.745,8.983-8.615,15.654-17.618,14.917c-16.721-1.39-33.902-0.879-50.455,1.508C220.889,38.272,220.104,38.327,219.329,38.327z"
	/>
<path style="fill:#57565C;" d="M253.652,455.513h-0.102c-20.891,0-41.474-3.236-61.178-9.62
	c-8.576-2.778-13.276-11.983-10.497-20.559c2.778-8.576,11.983-13.276,20.559-10.498c16.448,5.329,33.646,8.031,51.116,8.031
	c9.014,0,16.374,7.308,16.374,16.323S262.667,455.513,253.652,455.513z M336.268,435.684c-5.936,0-11.661-3.249-14.547-8.898
	c-4.104-8.028-0.922-17.86,7.106-21.963c15.476-7.909,29.576-18.174,41.906-30.51c6.374-6.376,16.708-6.379,23.085-0.004
	c6.376,6.372,6.378,16.708,0.005,23.084c-14.749,14.755-31.619,27.036-50.139,36.501
	C341.305,435.108,338.768,435.684,336.268,435.684z M124.954,402.305c-4.173,0-8.346-1.59-11.534-4.772
	c-14.764-14.742-27.054-31.604-36.528-50.121c-4.106-8.025-0.929-17.86,7.096-21.966c8.019-4.105,17.858-0.93,21.966,7.096
	c7.915,15.471,18.188,29.564,30.533,41.889c6.379,6.369,6.387,16.704,0.019,23.084C133.317,400.708,129.135,402.305,124.954,402.305
	z M426.705,329.753c-1.669,0-3.368-0.258-5.042-0.801c-8.575-2.783-13.269-11.99-10.488-20.565
	c5.347-16.476,8.058-33.704,8.058-51.204l-0.001-0.407c0-9.015,7.308-16.323,16.323-16.323s16.323,7.308,16.323,16.323l0.001,0.28
	c0,0.042,0,0.086,0,0.128c0,20.927-3.247,41.545-9.652,61.281C439.989,325.364,433.589,329.753,426.705,329.753z M71.544,273.709
	c-9.015,0-16.323-7.308-16.323-16.323v-0.203c0-20.854,3.224-41.401,9.585-61.07c2.774-8.577,11.977-13.285,20.553-10.51
	c8.578,2.774,13.283,11.975,10.51,20.553c-5.309,16.42-8.001,33.588-8.001,51.027v0.203
	C87.866,266.401,80.558,273.709,71.544,273.709z M415.598,190.532c-5.926,0-11.642-3.238-14.535-8.874
	c-7.934-15.463-18.223-29.544-30.581-41.856c-6.385-6.363-6.406-16.697-0.044-23.084c6.364-6.389,16.697-6.406,23.085-0.044
	c14.78,14.725,27.088,31.574,36.585,50.079c4.116,8.021,0.95,17.859-7.07,21.975C420.654,189.952,418.106,190.532,415.598,190.532z
	 M124.679,144.98c-4.17,0-8.34-1.588-11.527-4.765c-6.382-6.366-6.396-16.701-0.03-23.084
	c14.732-14.772,31.588-27.071,50.099-36.558c8.021-4.11,17.859-0.941,21.97,7.082c4.11,8.023,0.94,17.859-7.083,21.97
	c-15.467,7.926-29.555,18.207-41.872,30.557C133.047,143.381,128.863,144.98,124.679,144.98z M309.505,100.265
	c-1.661,0-3.349-0.255-5.015-0.793c-16.395-5.291-33.533-7.973-50.94-7.973h-0.306c-9.015,0-16.323-7.308-16.323-16.323
	s7.308-16.323,16.323-16.323h0.221c20.899,0,41.411,3.213,61.049,9.55c8.579,2.768,13.29,11.967,10.522,20.547
	C322.806,95.863,316.398,100.265,309.505,100.265z"/>
<circle style="fill:#275A91;" cx="457.32" cy="422.259" r="54.681"/>
<path style="fill:#E9C013;" d="M253.55,117.725c-76.898,0-139.458,62.561-139.458,139.458s62.561,139.458,139.458,139.458
	s139.458-62.561,139.458-139.458S330.448,117.725,253.55,117.725z"/>
<g>
	<path style="fill:#DBAC12;" d="M253.55,150.37c71.376,0,130.389,53.902,138.499,123.136c0.627-5.356,0.961-10.801,0.961-16.323
		c0-76.898-62.561-139.458-139.458-139.458s-139.458,62.561-139.458,139.458c0,5.521,0.333,10.967,0.96,16.323
		C123.161,204.271,182.175,150.37,253.55,150.37z"/>
	<path style="fill:#DBAC12;" d="M253.652,117.726V396.64c76.851-0.055,139.356-62.593,139.356-139.457
		S330.503,117.781,253.652,117.726z"/>
</g>
<circle style="fill:#19487A;" cx="93.312" cy="232.545" r="49.782"/>
</svg>